# xmcd
#
# Track frame offsets:
#	150
#	19322
#	39590
#	56760
#	82775
#	102375
#	129210
#	135407
#	156207
#	181805
#	184840
#	203607
#	215605
#	235937
#	260822
#	276652
#	284030
#
# Disc length: 4443 seconds
#
# Revision: 0
# Processed by: cddbd v1.4PL0 Copyright (c) Steve Scherf et al.
# Submitted via: dBpowerAMP V4.0
#
DISCID=fd115911
DTITLE=Mzwakhe Mbuli - Born Free But always in Chains
DYEAR=1999
DGENRE=Ethnic
TTITLE0=Triple B
TTITLE1=The melody of memory
TTITLE2=Giya
TTITLE3=Kwa Zulu natal
TTITLE4=Africa sing
TTITLE5=Emandulo
TTITLE6=Voice of reason
TTITLE7=Izigi
TTITLE8=God bless africa
TTITLE9=I am not a Stranger
TTITLE10=Lababaholi
TTITLE11=Nobel Peace
TTITLE12=Pitoli
TTITLE13=The stone
TTITLE14=Bozisola
TTITLE15=BBB Speech
TTITLE16=Ukuhleka
EXTD=
EXTT0=
EXTT1=
EXTT2=
EXTT3=
EXTT4=
EXTT5=
EXTT6=
EXTT7=
EXTT8=
EXTT9=
EXTT10=
EXTT11=
EXTT12=
EXTT13=
EXTT14=
EXTT15=
EXTT16=
PLAYORDER=
